<?xml version="1.0" standalone="no"?>
<!DOCTYPE svg PUBLIC "-//W3C//DTD SVG 20010904//EN"
 "http://www.w3.org/TR/2001/REC-SVG-20010904/DTD/svg10.dtd">
<svg version="1.0" xmlns="http://www.w3.org/2000/svg"
 width="480.000000pt" height="480.000000pt" viewBox="0 0 480.000000 480.000000"
 preserveAspectRatio="xMidYMid meet">
<metadata>
Created by potrace 1.14, written by Peter Selinger 2001-2017
</metadata>
<g transform="translate(0.000000,480.000000) scale(0.100000,-0.100000)"
fill="#000000" stroke="none">
<path d="M310 2400 l0 -2090 2090 0 2090 0 0 2090 0 2090 -2090 0 -2090 0 0
-2090z m1363 2021 c4 -1 7 -294 7 -651 l0 -650 -652 2 -651 3 1 635 c0 349 1
640 1 647 1 6 11 13 24 15 17 2 1242 1 1270 -1z m1365 0 c9 -1 12 -138 12
-651 l0 -650 -650 0 -650 0 0 649 c0 600 1 650 17 653 13 2 1229 1 1271 -1z
m1383 -16 c1 -25 1 -1232 0 -1262 l-1 -23 -650 0 -650 0 0 649 c0 600 1 650
17 653 9 2 302 3 650 3 626 0 633 0 634 -20z m-2741 -2005 l0 -650 -650 0
c-612 0 -650 1 -651 18 -1 21 -1 1240 0 1265 1 16 39 17 651 17 l650 0 0 -650z
m1370 0 l0 -650 -650 0 -650 0 0 650 0 650 650 0 650 0 0 -650z m1372 30 c0
-338 -1 -630 -1 -647 l-1 -33 -650 0 -650 0 0 650 0 650 652 -2 651 -3 -1
-615z m-2742 -1400 c0 -513 -3 -650 -12 -651 -75 -4 -1280 0 -1285 4 -4 5 -8
1248 -4 1290 1 4 294 7 651 7 l650 0 0 -650z m1370 0 c0 -513 -3 -650 -12
-651 -17 -1 -1259 -1 -1275 0 -10 1 -13 138 -13 651 l0 650 650 0 650 0 0
-650z m1375 0 l0 -650 -35 -1 c-47 -1 -1242 -1 -1257 0 -10 1 -13 138 -13 651
l0 650 653 0 652 0 0 -650z"/>
<path d="M2325 4333 c-257 -47 -440 -224 -483 -468 -36 -208 59 -436 230 -553
185 -127 410 -139 600 -34 430 239 373 870 -93 1028 -69 23 -199 37 -254 27z"/>
<path d="M3681 2958 c-281 -50 -476 -284 -473 -568 4 -446 509 -707 882 -456
207 139 297 411 215 651 -61 179 -218 321 -403 365 -66 15 -162 19 -221 8z"/>
<path d="M975 1592 c-243 -27 -447 -208 -501 -447 -12 -50 -10 -185 3 -240 46
-199 203 -365 398 -421 74 -21 201 -25 275 -7 304 70 499 376 430 675 -46 199
-213 372 -405 422 -63 16 -149 24 -200 18z"/>
<path d="M2325 1588 c-77 -10 -116 -23 -195 -64 -284 -149 -381 -525 -206
-799 180 -280 555 -345 821 -142 234 178 289 515 125 757 -51 75 -91 115 -162
160 -119 78 -243 106 -383 88z"/>
<path d="M3698 1589 c-283 -43 -480 -265 -492 -554 -4 -91 35 -227 88 -309
255 -391 842 -330 1007 105 52 136 45 297 -19 439 -97 215 -351 354 -584 319z"/>
</g>
</svg>
